<?xml version="1.0" encoding="UTF-8"?>
<svg xmlns="http://www.w3.org/2000/svg" xmlns:xlink="http://www.w3.org/1999/xlink" width="41px" height="41px" viewBox="0 0 41 41" version="1.1">
<g id="surface1">
<path style=" stroke:none;fill-rule:nonzero;fill:rgb(78.431374%,85.490197%,32.156864%);fill-opacity:1;" d="M 9.777344 15.898438 C 13.726562 15.078125 15.929688 16.75 16.429688 19.25 C 16.929688 21.75 15.578125 24.140625 11.644531 24.953125 C 7.707031 25.765625 2.183594 22.429688 2.136719 22.191406 C 2.085938 21.957031 5.835938 16.710938 9.777344 15.898438 Z M 9.777344 15.898438 "/>
<path style=" stroke:none;fill-rule:nonzero;fill:rgb(78.431374%,85.490197%,32.156864%);fill-opacity:1;" d="M 18.746094 7.738281 C 21.035156 11.070312 20.359375 13.714844 18.261719 15.171875 C 16.164062 16.625 13.429688 16.308594 11.144531 12.996094 C 8.855469 9.683594 9.769531 3.28125 9.96875 3.15625 C 10.164062 3.035156 16.457031 4.417969 18.746094 7.738281 Z M 18.746094 7.738281 "/>
<path style=" stroke:none;fill-rule:nonzero;fill:rgb(78.431374%,85.490197%,32.156864%);fill-opacity:1;" d="M 29.765625 12.796875 C 27.609375 16.199219 24.894531 16.621094 22.738281 15.257812 C 20.582031 13.890625 19.804688 11.257812 21.960938 7.855469 C 24.117188 4.453125 30.34375 2.804688 30.570312 2.9375 C 30.796875 3.066406 31.921875 9.394531 29.765625 12.796875 Z M 29.765625 12.796875 "/>
<path style=" stroke:none;fill-rule:nonzero;fill:rgb(78.431374%,85.490197%,32.156864%);fill-opacity:1;" d="M 29.410156 24.917969 C 25.4375 24.265625 23.988281 21.925781 24.402344 19.410156 C 24.816406 16.890625 26.941406 15.144531 30.914062 15.800781 C 34.886719 16.457031 38.839844 21.542969 38.800781 21.785156 C 38.765625 22.023438 33.386719 25.574219 29.410156 24.917969 Z M 29.410156 24.917969 "/>
<path style=" stroke:none;fill-rule:nonzero;fill:rgb(60.000002%,37.254903%,35.686275%);fill-opacity:1;" d="M 23.558594 17.664062 C 23.699219 17.5 23.6875 17.257812 23.535156 17.105469 C 23.386719 16.953125 23.144531 16.945312 22.980469 17.085938 L 20.429688 19.628906 L 17.882812 17.085938 C 17.722656 16.945312 17.480469 16.953125 17.328125 17.105469 C 17.175781 17.257812 17.167969 17.5 17.304688 17.664062 L 20.019531 20.382812 L 20.019531 22.464844 L 17.882812 20.328125 C 17.722656 20.167969 17.464844 20.167969 17.304688 20.328125 C 17.144531 20.492188 17.144531 20.75 17.304688 20.910156 L 20.019531 23.628906 L 20.019531 38.449219 C 20.019531 38.675781 20.203125 38.859375 20.429688 38.859375 C 20.65625 38.859375 20.839844 38.675781 20.839844 38.449219 L 20.839844 23.625 L 23.558594 20.910156 C 23.699219 20.746094 23.6875 20.503906 23.535156 20.351562 C 23.386719 20.203125 23.144531 20.191406 22.980469 20.332031 L 20.839844 22.46875 L 20.839844 20.382812 Z M 23.558594 17.664062 "/>
<path style=" stroke:none;fill-rule:nonzero;fill:rgb(60.000002%,37.254903%,35.686275%);fill-opacity:1;" d="M 31.101562 32.140625 C 30.875 32.140625 30.691406 32.324219 30.691406 32.550781 L 30.691406 38.449219 C 30.691406 38.675781 30.875 38.859375 31.101562 38.859375 C 31.328125 38.859375 31.511719 38.675781 31.511719 38.449219 L 31.511719 32.550781 C 31.511719 32.324219 31.328125 32.140625 31.101562 32.140625 Z M 31.101562 32.140625 "/>
<path style=" stroke:none;fill-rule:nonzero;fill:rgb(78.431374%,85.490197%,32.156864%);fill-opacity:1;" d="M 26.800781 31.734375 C 28.390625 31.40625 29.261719 32.074219 29.480469 33.078125 C 29.695312 34.082031 29.140625 35.046875 27.550781 35.375 C 25.964844 35.703125 23.746094 34.359375 23.730469 34.265625 C 23.714844 34.167969 25.214844 32.0625 26.800781 31.734375 Z M 26.800781 31.734375 "/>
<path style=" stroke:none;fill-rule:nonzero;fill:rgb(78.431374%,85.490197%,32.156864%);fill-opacity:1;" d="M 30.410156 28.449219 C 31.332031 29.78125 31.058594 30.851562 30.214844 31.4375 C 29.367188 32.023438 28.273438 31.894531 27.34375 30.5625 C 26.414062 29.230469 26.796875 26.648438 26.878906 26.609375 C 26.960938 26.566406 29.488281 27.117188 30.410156 28.449219 Z M 30.410156 28.449219 "/>
<path style=" stroke:none;fill-rule:nonzero;fill:rgb(78.431374%,85.490197%,32.156864%);fill-opacity:1;" d="M 34.851562 30.484375 C 33.984375 31.851562 32.890625 32.019531 32.023438 31.472656 C 31.160156 30.921875 30.84375 29.863281 31.710938 28.496094 C 32.574219 27.125 35.082031 26.445312 35.164062 26.515625 C 35.246094 26.585938 35.710938 29.109375 34.851562 30.484375 Z M 34.851562 30.484375 "/>
<path style=" stroke:none;fill-rule:nonzero;fill:rgb(78.431374%,85.490197%,32.156864%);fill-opacity:1;" d="M 34.699219 35.363281 C 33.097656 35.097656 32.515625 34.15625 32.683594 33.144531 C 32.851562 32.132812 33.707031 31.429688 35.304688 31.691406 C 36.902344 31.957031 38.496094 34.003906 38.476562 34.101562 C 38.460938 34.195312 36.296875 35.625 34.699219 35.363281 Z M 34.699219 35.363281 "/>
</g>
</svg>
