<?xml version="1.0" encoding="UTF-8"?>
<svg xmlns="http://www.w3.org/2000/svg" xmlns:xlink="http://www.w3.org/1999/xlink" width="47px" height="47px" viewBox="0 0 47 47" version="1.1">
<g id="surface1">
<path style=" stroke:none;fill-rule:nonzero;fill:rgb(0%,0%,0%);fill-opacity:1;" d="M 23.167969 0.132812 C 23.085938 0.226562 21.140625 2.535156 21.140625 5.421875 L 21.140625 5.480469 C 21.167969 8.398438 23.179688 10.695312 23.265625 10.792969 C 23.339844 10.875 23.441406 10.921875 23.550781 10.917969 C 23.660156 10.917969 23.761719 10.871094 23.832031 10.789062 C 23.914062 10.691406 25.859375 8.386719 25.859375 5.496094 L 25.859375 5.4375 C 25.832031 2.523438 23.816406 0.222656 23.734375 0.125 C 23.660156 0.0429688 23.558594 0 23.449219 0 C 23.339844 0 23.238281 0.0507812 23.167969 0.132812 Z M 23.167969 0.132812 "/>
<path style=" stroke:none;fill-rule:nonzero;fill:rgb(0%,0%,0%);fill-opacity:1;" d="M 5.015625 15.265625 C 5.085938 15.371094 6.785156 17.863281 9.566406 18.640625 L 9.621094 18.65625 C 12.4375 19.414062 15.195312 18.09375 15.308594 18.039062 C 15.40625 17.992188 15.480469 17.902344 15.507812 17.800781 C 15.535156 17.695312 15.515625 17.582031 15.457031 17.492188 C 15.386719 17.386719 13.6875 14.894531 10.90625 14.117188 L 10.847656 14.101562 C 8.035156 13.34375 5.277344 14.664062 5.160156 14.71875 C 5.0625 14.765625 4.992188 14.855469 4.964844 14.957031 C 4.933594 15.0625 4.953125 15.175781 5.015625 15.265625 Z M 5.015625 15.265625 "/>
<path style=" stroke:none;fill-rule:nonzero;fill:rgb(0%,0%,0%);fill-opacity:1;" d="M 41.984375 15.265625 C 41.914062 15.371094 40.214844 17.863281 37.433594 18.640625 L 37.378906 18.65625 C 34.5625 19.414062 31.804688 18.09375 31.691406 18.039062 C 31.59375 17.992188 31.519531 17.902344 31.492188 17.800781 C 31.464844 17.695312 31.484375 17.582031 31.542969 17.492188 C 31.613281 17.386719 33.3125 14.894531 36.09375 14.117188 L 36.152344 14.101562 C 38.964844 13.34375 41.722656 14.664062 41.839844 14.71875 C 41.9375 14.765625 42.007812 14.855469 42.035156 14.957031 C 42.066406 15.0625 42.046875 15.175781 41.984375 15.265625 Z M 41.984375 15.265625 "/>
<path style=" stroke:none;fill-rule:nonzero;fill:rgb(0%,0%,0%);fill-opacity:1;" d="M 36.445312 4.921875 C 36.273438 4.9375 32.199219 5.285156 29.429688 8.050781 L 29.375 8.109375 C 26.605469 10.929688 26.332031 15.0625 26.320312 15.238281 C 26.3125 15.382812 26.367188 15.527344 26.472656 15.628906 C 26.574219 15.730469 26.71875 15.785156 26.867188 15.773438 C 27.039062 15.757812 31.113281 15.414062 33.882812 12.644531 L 33.9375 12.589844 C 36.707031 9.765625 36.980469 5.632812 36.992188 5.457031 C 37 5.3125 36.945312 5.167969 36.839844 5.066406 C 36.734375 4.964844 36.589844 4.910156 36.445312 4.921875 Z M 36.445312 4.921875 "/>
<path style=" stroke:none;fill-rule:nonzero;fill:rgb(0%,0%,0%);fill-opacity:1;" d="M 10.554688 4.921875 C 10.726562 4.9375 14.800781 5.285156 17.570312 8.050781 L 17.625 8.109375 C 20.394531 10.929688 20.667969 15.0625 20.679688 15.238281 C 20.6875 15.382812 20.632812 15.527344 20.527344 15.628906 C 20.425781 15.730469 20.28125 15.785156 20.132812 15.773438 C 19.960938 15.757812 15.886719 15.414062 13.117188 12.644531 L 13.0625 12.589844 C 10.292969 9.765625 10.019531 5.632812 10.007812 5.457031 C 10 5.3125 10.054688 5.167969 10.160156 5.066406 C 10.265625 4.964844 10.410156 4.910156 10.554688 4.921875 Z M 10.554688 4.921875 "/>
<path style=" stroke:none;fill-rule:nonzero;fill:rgb(0%,0%,0%);fill-opacity:1;" d="M 8.410156 31.023438 C 8.421875 30.851562 8.769531 26.773438 11.539062 24.007812 L 11.59375 23.949219 C 14.414062 21.183594 18.546875 20.90625 18.722656 20.898438 C 18.867188 20.886719 19.011719 20.941406 19.113281 21.046875 C 19.21875 21.152344 19.269531 21.296875 19.257812 21.441406 C 19.246094 21.613281 18.898438 25.691406 16.128906 28.457031 L 16.074219 28.515625 C 13.253906 31.28125 9.121094 31.558594 8.945312 31.566406 C 8.796875 31.578125 8.65625 31.523438 8.550781 31.417969 C 8.449219 31.3125 8.398438 31.167969 8.410156 31.023438 Z M 8.410156 31.023438 "/>
<path style=" stroke:none;fill-rule:nonzero;fill:rgb(0%,0%,0%);fill-opacity:1;" d="M 38.589844 31.023438 C 38.578125 30.851562 38.230469 26.773438 35.460938 24.007812 L 35.40625 23.949219 C 32.585938 21.183594 28.453125 20.90625 28.277344 20.898438 C 28.132812 20.886719 27.988281 20.941406 27.886719 21.046875 C 27.78125 21.152344 27.730469 21.296875 27.742188 21.441406 C 27.753906 21.613281 28.101562 25.691406 30.871094 28.457031 L 30.925781 28.515625 C 33.746094 31.28125 37.878906 31.558594 38.054688 31.566406 C 38.203125 31.578125 38.34375 31.523438 38.449219 31.417969 C 38.550781 31.3125 38.601562 31.167969 38.589844 31.023438 Z M 38.589844 31.023438 "/>
<path style=" stroke:none;fill-rule:nonzero;fill:rgb(0%,0%,0%);fill-opacity:1;" d="M 27.1875 43.953125 C 27.1875 43.953125 27.136719 43.941406 27.039062 43.914062 L 25.390625 29.011719 C 25.148438 26.953125 25.296875 24.953125 25.925781 22.996094 C 26.339844 21.699219 26.945312 20.46875 27.800781 19.398438 C 28.183594 18.914062 28.617188 18.464844 29.097656 18.066406 C 29.191406 17.988281 29.925781 17.550781 29.925781 17.476562 C 29.925781 17.480469 28.582031 18.023438 28.472656 18.082031 C 27.789062 18.445312 27.175781 18.902344 26.582031 19.394531 C 25.828125 20.082031 25.160156 20.828125 24.574219 21.652344 L 23.484375 11.816406 L 22.40625 21.613281 C 21.773438 20.71875 21.042969 19.90625 20.199219 19.203125 C 19.613281 18.714844 18.96875 18.296875 18.289062 17.953125 C 18.1875 17.902344 17.085938 17.488281 17.085938 17.476562 C 17.085938 17.558594 17.992188 18.128906 18.101562 18.230469 C 18.566406 18.648438 19 19.105469 19.371094 19.609375 C 20.160156 20.605469 20.699219 21.796875 21.085938 22.996094 C 21.667969 24.808594 21.820312 26.671875 21.644531 28.570312 L 20.105469 42.5625 C 18.738281 42.402344 17.445312 42.339844 16.511719 42.496094 C 14.488281 42.828125 11.894531 44.070312 11.359375 46.273438 C 14.710938 43.453125 19.9375 45.367188 23.644531 46.355469 C 25.863281 46.949219 28.21875 47.226562 30.492188 46.78125 C 32.503906 46.386719 35.101562 45.195312 35.640625 42.996094 C 33.351562 44.894531 30.730469 44.832031 27.1875 43.953125 Z M 27.1875 43.953125 "/>
</g>
</svg>
