<?xml version="1.0" encoding="UTF-8"?>
<svg xmlns="http://www.w3.org/2000/svg" xmlns:xlink="http://www.w3.org/1999/xlink" width="9px" height="9px" viewBox="0 0 9 9" version="1.1">
<g id="surface1">
<path style=" stroke:none;fill-rule:nonzero;fill:rgb(78.431374%,85.490197%,32.156864%);fill-opacity:1;" d="M 2.148438 3.488281 C 3.011719 3.308594 3.496094 3.675781 3.605469 4.226562 C 3.714844 4.773438 3.421875 5.300781 2.554688 5.476562 C 1.691406 5.65625 0.480469 4.925781 0.46875 4.871094 C 0.457031 4.820312 1.28125 3.667969 2.148438 3.488281 Z M 2.148438 3.488281 "/>
<path style=" stroke:none;fill-rule:nonzero;fill:rgb(78.431374%,85.490197%,32.156864%);fill-opacity:1;" d="M 4.113281 1.699219 C 4.617188 2.429688 4.46875 3.011719 4.007812 3.328125 C 3.546875 3.648438 2.949219 3.582031 2.445312 2.851562 C 1.945312 2.125 2.144531 0.71875 2.1875 0.691406 C 2.230469 0.664062 3.613281 0.96875 4.113281 1.699219 Z M 4.113281 1.699219 "/>
<path style=" stroke:none;fill-rule:nonzero;fill:rgb(78.431374%,85.490197%,32.156864%);fill-opacity:1;" d="M 6.535156 2.808594 C 6.0625 3.554688 5.464844 3.648438 4.992188 3.347656 C 4.519531 3.050781 4.347656 2.472656 4.820312 1.722656 C 5.292969 0.976562 6.660156 0.617188 6.710938 0.644531 C 6.761719 0.671875 7.007812 2.0625 6.535156 2.808594 Z M 6.535156 2.808594 "/>
<path style=" stroke:none;fill-rule:nonzero;fill:rgb(78.431374%,85.490197%,32.156864%);fill-opacity:1;" d="M 6.457031 5.46875 C 5.582031 5.328125 5.265625 4.8125 5.355469 4.261719 C 5.449219 3.707031 5.914062 3.324219 6.785156 3.46875 C 7.65625 3.613281 8.527344 4.730469 8.519531 4.78125 C 8.507812 4.835938 7.328125 5.613281 6.457031 5.46875 Z M 6.457031 5.46875 "/>
<path style=" stroke:none;fill-rule:nonzero;fill:rgb(60.000002%,37.254903%,35.686275%);fill-opacity:1;" d="M 5.171875 3.878906 C 5.203125 3.839844 5.199219 3.789062 5.167969 3.753906 C 5.132812 3.722656 5.082031 3.71875 5.042969 3.75 L 4.484375 4.308594 L 3.925781 3.75 C 3.890625 3.71875 3.835938 3.722656 3.804688 3.753906 C 3.769531 3.789062 3.769531 3.839844 3.800781 3.878906 L 4.394531 4.472656 L 4.394531 4.929688 L 3.925781 4.460938 C 3.890625 4.425781 3.832031 4.425781 3.796875 4.460938 C 3.761719 4.496094 3.761719 4.554688 3.800781 4.589844 L 4.394531 5.1875 L 4.394531 8.441406 C 4.394531 8.488281 4.433594 8.53125 4.484375 8.53125 C 4.535156 8.53125 4.574219 8.488281 4.574219 8.441406 L 4.574219 5.1875 L 5.171875 4.589844 C 5.203125 4.554688 5.199219 4.5 5.167969 4.46875 C 5.132812 4.433594 5.082031 4.433594 5.042969 4.464844 L 4.574219 4.933594 L 4.574219 4.472656 Z M 5.171875 3.878906 "/>
<path style=" stroke:none;fill-rule:nonzero;fill:rgb(60.000002%,37.254903%,35.686275%);fill-opacity:1;" d="M 6.828125 7.054688 C 6.777344 7.054688 6.738281 7.09375 6.738281 7.144531 L 6.738281 8.441406 C 6.738281 8.488281 6.777344 8.53125 6.828125 8.53125 C 6.878906 8.53125 6.917969 8.488281 6.917969 8.441406 L 6.917969 7.144531 C 6.917969 7.09375 6.878906 7.054688 6.828125 7.054688 Z M 6.828125 7.054688 "/>
<path style=" stroke:none;fill-rule:nonzero;fill:rgb(78.431374%,85.490197%,32.156864%);fill-opacity:1;" d="M 5.882812 6.964844 C 6.234375 6.894531 6.421875 7.039062 6.472656 7.261719 C 6.519531 7.480469 6.394531 7.691406 6.046875 7.765625 C 5.699219 7.835938 5.210938 7.542969 5.210938 7.519531 C 5.207031 7.5 5.535156 7.039062 5.882812 6.964844 Z M 5.882812 6.964844 "/>
<path style=" stroke:none;fill-rule:nonzero;fill:rgb(78.431374%,85.490197%,32.156864%);fill-opacity:1;" d="M 6.675781 6.246094 C 6.878906 6.539062 6.816406 6.773438 6.632812 6.902344 C 6.445312 7.03125 6.207031 7 6.003906 6.707031 C 5.796875 6.417969 5.882812 5.851562 5.902344 5.839844 C 5.917969 5.832031 6.472656 5.953125 6.675781 6.246094 Z M 6.675781 6.246094 "/>
<path style=" stroke:none;fill-rule:nonzero;fill:rgb(78.431374%,85.490197%,32.156864%);fill-opacity:1;" d="M 7.648438 6.691406 C 7.460938 6.992188 7.21875 7.027344 7.03125 6.910156 C 6.839844 6.789062 6.769531 6.554688 6.960938 6.253906 C 7.152344 5.953125 7.703125 5.804688 7.71875 5.820312 C 7.738281 5.835938 7.839844 6.390625 7.648438 6.691406 Z M 7.648438 6.691406 "/>
<path style=" stroke:none;fill-rule:nonzero;fill:rgb(78.431374%,85.490197%,32.156864%);fill-opacity:1;" d="M 7.617188 7.761719 C 7.265625 7.703125 7.136719 7.496094 7.175781 7.277344 C 7.210938 7.054688 7.398438 6.898438 7.75 6.957031 C 8.101562 7.015625 8.449219 7.464844 8.445312 7.484375 C 8.441406 7.507812 7.96875 7.820312 7.617188 7.761719 Z M 7.617188 7.761719 "/>
</g>
</svg>
