<?xml version="1.0" encoding="UTF-8"?>
<svg xmlns="http://www.w3.org/2000/svg" xmlns:xlink="http://www.w3.org/1999/xlink" width="23px" height="23px" viewBox="0 0 23 23" version="1.1">
<g id="surface1">
<path style=" stroke:none;fill-rule:nonzero;fill:rgb(78.431374%,85.490197%,32.156864%);fill-opacity:1;" d="M 5.484375 8.917969 C 7.699219 8.460938 8.933594 9.394531 9.214844 10.796875 C 9.496094 12.203125 8.738281 13.542969 6.53125 13.996094 C 4.324219 14.453125 1.226562 12.582031 1.199219 12.449219 C 1.171875 12.316406 3.273438 9.375 5.484375 8.917969 Z M 5.484375 8.917969 "/>
<path style=" stroke:none;fill-rule:nonzero;fill:rgb(78.431374%,85.490197%,32.156864%);fill-opacity:1;" d="M 10.515625 4.339844 C 11.800781 6.210938 11.421875 7.695312 10.246094 8.511719 C 9.066406 9.328125 7.535156 9.148438 6.25 7.289062 C 4.96875 5.433594 5.480469 1.839844 5.589844 1.769531 C 5.703125 1.703125 9.230469 2.480469 10.515625 4.339844 Z M 10.515625 4.339844 "/>
<path style=" stroke:none;fill-rule:nonzero;fill:rgb(78.431374%,85.490197%,32.156864%);fill-opacity:1;" d="M 16.699219 7.179688 C 15.488281 9.085938 13.964844 9.324219 12.753906 8.558594 C 11.546875 7.792969 11.109375 6.316406 12.320312 4.40625 C 13.527344 2.496094 17.023438 1.574219 17.148438 1.648438 C 17.273438 1.71875 17.90625 5.269531 16.699219 7.179688 Z M 16.699219 7.179688 "/>
<path style=" stroke:none;fill-rule:nonzero;fill:rgb(78.431374%,85.490197%,32.156864%);fill-opacity:1;" d="M 16.496094 13.980469 C 14.269531 13.613281 13.457031 12.300781 13.691406 10.886719 C 13.921875 9.476562 15.113281 8.496094 17.34375 8.863281 C 19.570312 9.230469 21.789062 12.085938 21.765625 12.21875 C 21.746094 12.355469 18.730469 14.347656 16.496094 13.980469 Z M 16.496094 13.980469 "/>
<path style=" stroke:none;fill-rule:nonzero;fill:rgb(60.000002%,37.254903%,35.686275%);fill-opacity:1;" d="M 13.214844 9.910156 C 13.292969 9.816406 13.289062 9.679688 13.203125 9.597656 C 13.117188 9.511719 12.984375 9.507812 12.890625 9.585938 L 11.460938 11.011719 L 10.03125 9.585938 C 9.941406 9.507812 9.804688 9.511719 9.71875 9.597656 C 9.636719 9.679688 9.628906 9.816406 9.707031 9.910156 L 11.230469 11.433594 L 11.230469 12.601562 L 10.03125 11.402344 C 9.941406 11.3125 9.796875 11.3125 9.707031 11.40625 C 9.617188 11.496094 9.617188 11.640625 9.707031 11.730469 L 11.230469 13.253906 L 11.230469 21.570312 C 11.230469 21.695312 11.332031 21.800781 11.460938 21.800781 C 11.589844 21.800781 11.691406 21.695312 11.691406 21.570312 L 11.691406 13.253906 L 13.214844 11.730469 C 13.292969 11.640625 13.289062 11.503906 13.203125 11.417969 C 13.117188 11.332031 12.984375 11.328125 12.890625 11.40625 L 11.691406 12.605469 L 11.691406 11.433594 Z M 13.214844 9.910156 "/>
<path style=" stroke:none;fill-rule:nonzero;fill:rgb(60.000002%,37.254903%,35.686275%);fill-opacity:1;" d="M 17.449219 18.03125 C 17.320312 18.03125 17.21875 18.132812 17.21875 18.257812 L 17.21875 21.570312 C 17.21875 21.695312 17.320312 21.800781 17.449219 21.800781 C 17.574219 21.800781 17.679688 21.695312 17.679688 21.570312 L 17.679688 18.257812 C 17.679688 18.132812 17.574219 18.03125 17.449219 18.03125 Z M 17.449219 18.03125 "/>
<path style=" stroke:none;fill-rule:nonzero;fill:rgb(78.431374%,85.490197%,32.156864%);fill-opacity:1;" d="M 15.035156 17.800781 C 15.925781 17.617188 16.414062 17.992188 16.535156 18.554688 C 16.660156 19.121094 16.347656 19.660156 15.457031 19.84375 C 14.566406 20.027344 13.320312 19.273438 13.3125 19.222656 C 13.304688 19.167969 14.144531 17.984375 15.035156 17.800781 Z M 15.035156 17.800781 "/>
<path style=" stroke:none;fill-rule:nonzero;fill:rgb(78.431374%,85.490197%,32.156864%);fill-opacity:1;" d="M 17.058594 15.960938 C 17.578125 16.707031 17.421875 17.308594 16.949219 17.636719 C 16.476562 17.964844 15.859375 17.890625 15.339844 17.144531 C 14.816406 16.398438 15.03125 14.949219 15.078125 14.925781 C 15.125 14.902344 16.542969 15.210938 17.058594 15.960938 Z M 17.058594 15.960938 "/>
<path style=" stroke:none;fill-rule:nonzero;fill:rgb(78.431374%,85.490197%,32.156864%);fill-opacity:1;" d="M 19.550781 17.101562 C 19.066406 17.867188 18.449219 17.964844 17.964844 17.65625 C 17.480469 17.347656 17.304688 16.753906 17.789062 15.984375 C 18.273438 15.21875 19.679688 14.835938 19.726562 14.875 C 19.773438 14.914062 20.03125 16.328125 19.550781 17.101562 Z M 19.550781 17.101562 "/>
<path style=" stroke:none;fill-rule:nonzero;fill:rgb(78.431374%,85.490197%,32.156864%);fill-opacity:1;" d="M 19.464844 19.835938 C 18.566406 19.6875 18.242188 19.160156 18.335938 18.59375 C 18.429688 18.023438 18.910156 17.632812 19.804688 17.777344 C 20.703125 17.925781 21.59375 19.078125 21.585938 19.128906 C 21.578125 19.183594 20.363281 19.984375 19.464844 19.835938 Z M 19.464844 19.835938 "/>
</g>
</svg>
